<svg width="620" height="175" viewBox="0 0 620 175" fill="none" xmlns="http://www.w3.org/2000/svg">
<g clip-path="url(#clip0_1_2)">
<path d="M34.4886 124L14.7614 54.1818H31.5341L43.8068 103.273H44.4432L56.9886 54.1818H73.5795L86.125 103H86.8068L98.8977 54.1818H115.716L95.9432 124H78.8068L65.7159 76.8182H64.7614L51.6705 124H34.4886ZM155.659 125.364C148.841 125.364 142.932 123.864 137.932 120.864C132.932 117.864 129.053 113.667 126.295 108.273C123.568 102.879 122.205 96.5758 122.205 89.3636C122.205 82.1515 123.568 75.8333 126.295 70.4091C129.053 64.9848 132.932 60.7727 137.932 57.7727C142.932 54.7727 148.841 53.2727 155.659 53.2727C162.477 53.2727 168.386 54.7727 173.386 57.7727C178.386 60.7727 182.25 64.9848 184.977 70.4091C187.735 75.8333 189.114 82.1515 189.114 89.3636C189.114 96.5758 187.735 102.879 184.977 108.273C182.25 113.667 178.386 117.864 173.386 120.864C168.386 123.864 162.477 125.364 155.659 125.364ZM155.75 112.182C159.447 112.182 162.538 111.167 165.023 109.136C167.508 107.076 169.356 104.318 170.568 100.864C171.811 97.4091 172.432 93.5606 172.432 89.3182C172.432 85.0455 171.811 81.1818 170.568 77.7273C169.356 74.2424 167.508 71.4697 165.023 69.4091C162.538 67.3485 159.447 66.3182 155.75 66.3182C151.962 66.3182 148.811 67.3485 146.295 69.4091C143.811 71.4697 141.947 74.2424 140.705 77.7273C139.492 81.1818 138.886 85.0455 138.886 89.3182C138.886 93.5606 139.492 97.4091 140.705 100.864C141.947 104.318 143.811 107.076 146.295 109.136C148.811 111.167 151.962 112.182 155.75 112.182ZM203.08 124V54.1818H219.034V65.8182H219.761C221.034 61.7879 223.216 58.6818 226.307 56.5C229.428 54.2879 232.989 53.1818 236.989 53.1818C237.898 53.1818 238.913 53.2273 240.034 53.3182C241.186 53.3788 242.14 53.4848 242.898 53.6364V68.7727C242.201 68.5303 241.095 68.3182 239.58 68.1364C238.095 67.9242 236.655 67.8182 235.261 67.8182C232.261 67.8182 229.564 68.4697 227.17 69.7727C224.807 71.0455 222.943 72.8182 221.58 75.0909C220.216 77.3636 219.534 79.9848 219.534 82.9545V124H203.08ZM276.864 125.227C271.379 125.227 266.47 123.818 262.136 121C257.803 118.182 254.379 114.091 251.864 108.727C249.348 103.364 248.091 96.8485 248.091 89.1818C248.091 81.4242 249.364 74.8788 251.909 69.5455C254.485 64.1818 257.955 60.1364 262.318 57.4091C266.682 54.6515 271.545 53.2727 276.909 53.2727C281 53.2727 284.364 53.9697 287 55.3636C289.636 56.7273 291.727 58.3788 293.273 60.3182C294.818 62.2273 296.015 64.0303 296.864 65.7273H297.545V30.9091H314.045V124H297.864V113H296.864C296.015 114.697 294.788 116.5 293.182 118.409C291.576 120.288 289.455 121.894 286.818 123.227C284.182 124.561 280.864 125.227 276.864 125.227ZM281.455 111.727C284.939 111.727 287.909 110.788 290.364 108.909C292.818 107 294.682 104.348 295.955 100.955C297.227 97.5606 297.864 93.6061 297.864 89.0909C297.864 84.5758 297.227 80.6515 295.955 77.3182C294.712 73.9848 292.864 71.3939 290.409 69.5455C287.985 67.697 285 66.7727 281.455 66.7727C277.788 66.7727 274.727 67.7273 272.273 69.6364C269.818 71.5455 267.97 74.1818 266.727 77.5455C265.485 80.9091 264.864 84.7576 264.864 89.0909C264.864 93.4545 265.485 97.3485 266.727 100.773C268 104.167 269.864 106.848 272.318 108.818C274.803 110.758 277.848 111.727 281.455 111.727Z" fill="#00BBBB"/>
<path d="M383.989 69.5L376.216 71.5C375.822 69.4091 375.095 67.5303 374.034 65.8636C373.004 64.1667 371.504 62.8333 369.534 61.8636C367.595 60.8636 365.049 60.3636 361.898 60.3636C357.17 60.3636 353.095 61.5152 349.67 63.8182C346.246 66.0909 344.246 69 343.67 72.5455C343.186 75.5152 343.807 77.9242 345.534 79.7727C347.292 81.6212 350.231 83.0758 354.352 84.1364L364.534 86.7273C370.17 88.1818 374.186 90.4545 376.58 93.5455C379.004 96.6364 379.837 100.545 379.08 105.273C378.413 109.212 376.731 112.697 374.034 115.727C371.367 118.758 367.943 121.136 363.761 122.864C359.61 124.591 354.973 125.455 349.852 125.455C342.973 125.455 337.564 123.909 333.625 120.818C329.716 117.727 327.625 113.273 327.352 107.455L335.489 105.636C335.731 109.758 337.14 112.879 339.716 115C342.322 117.121 345.989 118.182 350.716 118.182C356.11 118.182 360.64 116.955 364.307 114.5C367.973 112.045 370.08 109.015 370.625 105.409C371.14 102.561 370.61 100.197 369.034 98.3182C367.489 96.4394 364.852 95.0455 361.125 94.1364L350.261 91.4091C344.413 89.9242 340.277 87.6061 337.852 84.4545C335.458 81.2727 334.655 77.3485 335.443 72.6818C336.08 68.8333 337.686 65.4545 340.261 62.5455C342.837 59.6364 346.095 57.3636 350.034 55.7273C353.973 54.0606 358.277 53.2273 362.943 53.2273C369.367 53.2273 374.261 54.6818 377.625 57.5909C380.989 60.4697 383.11 64.4394 383.989 69.5ZM432.75 54.1818L431.614 61.2273H398.25L399.432 54.1818H432.75ZM412.568 37.4545H420.705L409.341 105.773C408.856 108.682 408.977 110.97 409.705 112.636C410.432 114.273 411.553 115.439 413.068 116.136C414.583 116.803 416.25 117.136 418.068 117.136C419.129 117.136 420.038 117.076 420.795 116.955C421.583 116.803 422.28 116.652 422.886 116.5L423.477 123.818C422.598 124.121 421.553 124.394 420.341 124.636C419.129 124.909 417.674 125.045 415.977 125.045C413.008 125.045 410.265 124.394 407.75 123.091C405.235 121.788 403.326 119.848 402.023 117.273C400.72 114.697 400.371 111.5 400.977 107.682L412.568 37.4545ZM440.852 150.182C439.246 150.182 437.761 150.03 436.398 149.727C435.064 149.424 434.019 149.091 433.261 148.727L436.67 141.591C439.216 142.47 441.549 142.742 443.67 142.409C445.822 142.106 447.867 141.076 449.807 139.318C451.746 137.561 453.655 134.939 455.534 131.455L459.352 124.364L445.534 54.1818H453.943L464.852 113.455H465.443L496.034 54.1818H505.17L462.216 134.955C460.367 138.439 458.322 141.303 456.08 143.545C453.867 145.788 451.473 147.455 448.898 148.545C446.352 149.636 443.67 150.182 440.852 150.182ZM532.909 30.9091L517.455 124H509.364L524.818 30.9091H532.909ZM566.909 125.455C560.394 125.455 555.015 123.939 550.773 120.909C546.53 117.848 543.561 113.621 541.864 108.227C540.167 102.803 539.909 96.5606 541.091 89.5C542.273 82.4697 544.606 76.2273 548.091 70.7727C551.576 65.2879 555.879 61 561 57.9091C566.121 54.7879 571.682 53.2273 577.682 53.2273C581.47 53.2273 585.015 53.9242 588.318 55.3182C591.621 56.6818 594.424 58.7879 596.727 61.6364C599.061 64.4545 600.682 68.0152 601.591 72.3182C602.5 76.5909 602.47 81.6515 601.5 87.5L600.864 91.5H546.318L547.455 84.3636H593.773C594.53 79.8788 594.318 75.8485 593.136 72.2727C591.955 68.697 589.939 65.8636 587.091 63.7727C584.273 61.6515 580.773 60.5909 576.591 60.5909C572.318 60.5909 568.273 61.7879 564.455 64.1818C560.667 66.5758 557.455 69.697 554.818 73.5455C552.212 77.3636 550.53 81.4394 549.773 85.7727L548.864 91.1364C547.894 97.0455 548.015 102 549.227 106C550.439 109.97 552.636 112.97 555.818 115C559 117.03 563.076 118.045 568.045 118.045C571.379 118.045 574.394 117.53 577.091 116.5C579.788 115.47 582.136 114.091 584.136 112.364C586.136 110.606 587.742 108.682 588.955 106.591L596.182 109.091C594.636 112.03 592.455 114.742 589.636 117.227C586.848 119.712 583.53 121.712 579.682 123.227C575.864 124.712 571.606 125.455 566.909 125.455Z" fill="#CC00FF"/>
<path d="M11.625 149.455H323.182V158.182H11.625V149.455Z" fill="#00BBBB"/>
</g>
<defs>
<clipPath id="clip0_1_2">
<rect width="620" height="175" fill="white"/>
</clipPath>
</defs>
</svg>
